# xmcd
#
# Track frame offsets:
#	150
#	13141
#	27497
#	35862
#	49160
#	64813
#	78123
#	95081
#	107292
#	125202
#	133849
#
# Disc length: 2032 seconds
#
# Revision: 1
# Processed by: cddbd v1.5.2PL0 Copyright (c) Steve Scherf et al.
# Submitted via: audiograbber 1.83.01
#
DISCID=9b07ee0b
DTITLE=Billie Jo Spears - We Just Came Apart At The Dreams
DYEAR=1983
DGENRE=Country
TTITLE0=Can't Change My Heart
TTITLE1=Love Dies Hard
TTITLE2=Baby On My Mind
TTITLE3=Settin' Me Up
TTITLE4=Blowing Away
TTITLE5=Midnight Blue
TTITLE6=We Just Came Apart At The Drea
TTITLE7=You Never Can Tell (c'Est La V
TTITLE8=Too Far Gone
TTITLE9=Sweet Dreams
TTITLE10=Ain't No Money
EXTD=
EXTT0=
EXTT1=
EXTT2=
EXTT3=
EXTT4=
EXTT5=
EXTT6=
EXTT7=
EXTT8=
EXTT9=
EXTT10=
PLAYORDER=
